<?xml version="1.0" encoding="utf-8"?>
<!-- Generator: Adobe Illustrator 15.0.0, SVG Export Plug-In . SVG Version: 6.00 Build 0)  -->
<!DOCTYPE svg PUBLIC "-//W3C//DTD SVG 1.1//EN" "http://www.w3.org/Graphics/SVG/1.1/DTD/svg11.dtd">
<svg version="1.1" id="Layer_1" xmlns="http://www.w3.org/2000/svg" xmlns:xlink="http://www.w3.org/1999/xlink" x="0px" y="0px"
	 width="55px" height="40.8px" viewBox="0 0 55 40.8" enable-background="new 0 0 55 40.8" xml:space="preserve">
<g>
	<path fill="#9B1B1B" d="M54.3,29.4c0,3-1,5.5-3.1,7.6c-2.1,2.1-4.6,3.1-7.6,3.1H13.2c-3.4,0-6.4-1.2-8.8-3.7
		C1.9,34,0.7,31,0.7,27.6c0-2.5,0.7-4.7,2-6.7s3.1-3.6,5.2-4.6c0-0.5-0.1-0.9-0.1-1.2C7.9,11.2,9.3,7.8,12,5
		c2.8-2.8,6.2-4.2,10.1-4.2c2.9,0,5.6,0.8,8,2.5c2.4,1.6,4.1,3.8,5.2,6.4C36.7,8.5,38.2,8,40,8c2,0,3.7,0.7,5.1,2.1s2.1,3.1,2.1,5.1
		c0,1.4-0.4,2.7-1.1,3.9c2.4,0.6,4.4,1.8,5.9,3.8C53.5,24.7,54.3,26.9,54.3,29.4z"/>
</g>
</svg>
